<svg width="76" height="76" viewBox="0 0 76 76" fill="none" xmlns="http://www.w3.org/2000/svg">
<g clip-path="url(#clip0_2037_450)">
<g filter="url(#filter0_d_2037_450)">
<circle cx="36.0001" cy="36.007" r="33.4752" fill="#3E1F25"/>
</g>
<path d="M28.448 6.328H43.316L45.204 13.88L45.912 17.656L47.092 23.32V27.804L45.912 31.344L44.26 33.704L42.372 35.592L38.832 37.48L37.888 38.66L36.944 41.728V58.72L37.416 62.496L38.596 63.912L40.72 64.856L43.08 65.564V66.508L36.944 66.744H33.404L28.684 66.508L27.74 66.272L27.976 65.564L32.696 63.676L33.876 62.732L34.584 60.608L35.056 54.236V45.032L34.584 41.256L33.876 38.66L32.932 37.48L29.628 35.592L27.268 33.468L25.852 31.344L24.908 29.456L24.436 26.86V23.556L26.56 14.352L28.212 7.036L28.448 6.328ZM29.628 7.508L28.212 13.408L26.796 19.308L25.852 23.556V27.096L26.56 29.928L28.212 32.524L30.1 34.412L32.932 35.828L34.82 36.3H37.18L40.012 35.356L41.9 34.176L43.08 32.996L44.26 31.58L45.204 29.692L45.912 26.86V24.264L45.44 22.376L44.968 19.544L43.552 13.172L42.372 7.98L42.136 7.508H29.628Z" fill="#F4F4D7"/>
<path d="M6.26398 36.772H7.67998L7.91598 37.008L29.392 37.244L30.1 37.952L30.336 41.728V53.528L31.28 53.764L31.752 54.472V55.652L31.044 56.36H29.864L28.92 55.18L29.156 53.764L29.392 53.528L29.628 42.908H29.156L28.684 43.852L27.504 45.268V57.776L27.032 58.012V59.192L25.852 60.136H25.144L24.908 58.72L26.088 57.304H26.796L26.56 49.988L26.796 45.976H26.324V46.448L24.908 47.628L24.436 49.28L23.256 49.516L23.02 48.336L24.2 47.156L27.74 43.616L28.92 42.436L29.392 41.964L29.628 38.66L27.74 40.312L21.604 46.448V49.516L22.784 50.224L23.02 50.46L22.784 52.112L22.548 52.348H21.368L21.84 54.472L23.492 52.82L24.436 51.876H25.144L24.672 52.82L22.784 54.944L21.84 56.36V62.024L22.548 62.732L22.312 64.384L21.84 65.092H20.188L19.716 64.856V62.968L20.66 62.024V57.776L19.952 57.304L20.188 56.36L20.66 55.888V52.348L19.716 51.64V50.46L20.424 49.752V47.628L17.828 50.224L16.412 51.876L16.176 52.584L14.052 52.348V53.528L13.108 54.708H11.692L11.928 53.292L13.108 51.876L13.58 51.64L15.704 51.404L18.536 48.336L19.48 47.156L20.66 45.976H21.132L21.604 45.032L28.448 38.188L24.908 37.952L24.436 38.896L22.312 41.02L20.896 42.2L19.244 44.088L18.3 45.268L16.412 46.684L14.524 46.92L12.4 49.28L10.748 51.168L9.33198 53.056L8.15198 54.236H6.97198L6.73598 54L6.97198 52.348L7.44398 51.876L9.33198 51.404L11.456 49.28L13.108 47.392L14.76 45.74L17.12 45.268L18.772 43.616L19.716 42.2L10.984 41.964V42.436L10.276 42.672H9.56798L9.33198 44.088L8.62398 44.796L7.67998 44.56V42.436L8.85998 41.256L20.896 41.02L23.728 38.188L8.38798 37.952L8.15198 39.368L7.20798 40.076L6.02798 39.84L5.08398 38.896L5.31998 37.716L6.26398 36.772Z" fill="#D5A97D"/>
<path d="M28.4479 20.252H30.5719L31.0439 20.96L30.8079 22.376L30.3359 23.556V24.972L31.5159 27.332L32.9319 28.04L33.8759 29.692L35.7639 30.164V34.648L33.4039 34.412L31.5159 33.468L30.0999 32.288L28.2119 29.692L27.5039 27.804V23.084L28.2119 20.488L28.4479 20.252Z" fill="#95373F"/>
<path d="M54.408 32.76L55.824 32.996L57.004 34.412L56.768 36.064L55.352 37.244L54.172 37.716L46.856 45.032L44.968 46.684L43.08 48.808L42.844 57.068H42.136V48.336L43.788 46.448L50.396 39.84L52.284 38.188L53.464 37.008V35.592L51.812 36.536L41.9 46.448L40.248 48.336H39.54L39.776 47.392L42.372 44.56L51.34 35.592L52.52 34.648L53.936 32.996L54.408 32.76Z" fill="#EEEACB"/>
<path d="M32.9321 2.78796H35.2921V3.96796L30.1001 4.20396L25.1441 5.38396L22.3121 6.56396L18.3001 8.45196L14.9961 10.812L12.4001 12.936L10.2761 15.532L7.91612 19.072L6.02812 22.612L4.61212 26.624L3.66812 30.636L3.43212 33.704L3.19612 34.176H2.72412V30.164L3.66812 26.152L5.32012 21.668L7.68012 17.42L9.56812 14.824L11.6921 12.464L14.2881 9.86796L18.3001 7.27196L22.7841 5.14796L26.0881 3.96796L30.5721 3.02396L32.9321 2.78796Z" fill="#E8D3A6"/>
<path d="M59.8361 12.464L60.7801 12.936L62.4321 14.824L64.5561 18.128L66.9161 23.084L68.3321 27.332L69.0401 30.4L69.2761 32.524V38.66L68.5681 43.616L67.6241 47.156L66.6801 49.516L66.2081 50.224H65.7361L65.5001 49.044L66.9161 45.74L67.8601 41.728L68.0961 38.896V31.58L66.9161 26.388L65.5001 22.612L63.6121 18.836L61.7241 15.768L59.6001 13.408L59.8361 12.464Z" fill="#7B7943"/>
<path d="M29.628 39.132H30.1L30.336 40.076V53.528L31.28 53.764L31.752 54.472V55.652L31.044 56.36H29.864L28.92 55.18L29.156 53.764L29.392 53.528L29.628 42.908H29.156L28.684 43.852L27.504 45.268V57.776L27.032 58.012V59.192L25.852 60.136H25.144L24.908 58.72L26.088 57.304H26.796L26.56 49.988L26.796 45.976H26.324V46.448L24.908 47.628L24.436 49.28L23.256 49.516L23.02 48.336L24.2 47.156L27.74 43.616L28.92 42.436L29.392 41.964L29.628 39.132Z" fill="#DAB787"/>
<path d="M59.5998 27.804H60.5438V34.648L59.1278 36.3L57.2398 37.952L54.6438 40.784L52.9918 42.436H52.5198V42.908L50.6318 44.56L47.5638 47.628L47.3278 58.4839H46.3838V47.628L47.7998 45.976H48.2718L48.7438 45.032L52.5198 41.256L54.4078 39.604L56.5318 37.48L57.4758 36.3L58.6558 35.356L59.3638 34.648L59.5998 27.804Z" fill="#E6DFC0"/>
<path d="M60.5441 43.8521L61.4881 44.0881L61.7241 48.8081L63.3761 50.2241L63.8481 51.1681L63.6121 52.8201L62.4321 54.2361L61.9601 54.4721H59.8361L58.4201 53.2921L58.1841 52.8201V50.6961L59.3641 49.2801L60.3081 48.8081L60.5441 43.8521Z" fill="#89A44B"/>
<path d="M62.4319 29.22H63.1399V36.064L61.4879 37.716L59.8359 39.132L58.6559 40.312L56.7679 42.2L55.8239 42.908V55.652L55.3519 55.888L54.6439 57.068L53.2279 57.54L52.7559 57.068V55.652L53.9359 54.708H54.6439V42.672L57.4759 40.076L60.3079 37.48L62.1959 35.592L62.4319 29.22Z" fill="#EFE9BC"/>
<path d="M20.6598 47.156H20.8958V49.752L21.6038 49.516L22.7838 50.224L23.0198 50.46L22.7838 52.112L22.5478 52.348H21.3678L21.8398 54.472L23.4918 52.82L24.4358 51.876H25.1438L24.6718 52.82L22.7838 54.944L21.8398 56.36V62.024L22.5478 62.732L22.3118 64.384L21.8398 65.092H20.1878L19.7158 64.856V62.968L20.6598 62.024V57.776L19.9518 57.304L20.1878 56.36L20.6598 55.888V52.348L19.7158 51.64V50.46L20.4238 49.752L20.6598 47.156Z" fill="#CE9D6F"/>
<path d="M36.7081 6.328H43.3161L45.2041 13.88L45.9121 17.656L46.6201 20.724V22.14L45.6761 21.196L45.4401 22.376H45.2041L44.7321 19.544L43.3161 13.172L42.1361 7.98V7.508H32.2241V7.272L40.2481 7.036V6.8L36.7081 6.564V6.328Z" fill="#EAE9D3"/>
<path d="M14.9959 12.464H16.6479L17.8279 13.172L18.5359 13.88L18.7719 14.588V16.476L17.5919 17.892L17.1199 18.128L14.9959 17.892L13.8159 17.184L13.1079 16.24V13.88L14.5239 12.7L14.9959 12.464Z" fill="#803540"/>
<path d="M31.2799 8.21594H33.4039L33.1679 10.3399L31.7519 17.1839L31.5159 18.8359H28.9199L29.3919 16.2399L31.0439 8.45194L31.2799 8.21594Z" fill="#F4F4DA"/>
<path d="M12.1639 18.6H14.5239L15.9399 19.308L16.6479 20.252V22.14L15.4679 23.556L14.5239 23.792V25.444L13.8159 24.972V23.556L12.1639 23.084L11.2199 21.904L10.9839 20.252L11.4559 19.544L12.1639 18.6Z" fill="#86A247"/>
<path d="M28.9199 37.952H29.3919L28.9199 39.132L21.6039 46.448L21.3679 49.752H20.8959L20.6599 47.392L17.8279 50.224L16.4119 51.876L16.1759 52.584L14.0519 52.348V53.528L13.1079 54.708H11.6919L11.9279 53.292L13.1079 51.876L13.5799 51.64L15.7039 51.404L18.5359 48.336L19.4799 47.156L20.6599 45.976H21.1319L21.6039 45.032L27.9759 38.66L28.6839 38.424L28.9199 37.952Z" fill="#E4CA98"/>
<path d="M14.0519 52.348H16.4119L17.3559 53.528V55.652L16.4119 57.068L15.7039 57.54H13.3439L12.1639 56.596L11.6919 55.652L11.9279 54.472H13.1079L13.8159 53.528L14.0519 52.348Z" fill="#AC4E48"/>
<path d="M36.708 2.78796H40.012L44.968 3.73196L49.924 5.38396L53.936 7.27196L55.352 8.45196L55.116 9.15996L53.936 8.68796L50.632 7.03596L47.092 5.61996L42.608 4.43996L36.708 3.73196V2.78796Z" fill="#727741"/>
<path d="M55.5882 54.944L57.0042 55.652L57.7122 56.596V58.72L56.7682 59.9L55.8242 60.372H53.9362L52.7562 59.428L52.2842 58.248V56.596L52.7562 56.124L53.2282 57.304L54.6442 56.832L55.5882 55.416V54.944Z" fill="#8A9340"/>
<path d="M27.5039 57.304L28.6839 57.776L29.6279 58.956L29.8639 59.428L29.6279 61.552L28.6839 62.496L27.7399 62.968L26.0879 62.732L24.9079 61.552L24.6719 61.08V58.956L25.1439 59.664V60.136L26.3239 59.428L27.0319 59.192L26.7959 57.776H27.5039V57.304Z" fill="#903239"/>
<path d="M10.9842 41.964L11.9282 43.144L12.1642 43.616V45.74L10.9842 47.156L9.09617 47.392L7.91617 46.684L6.97217 45.74V43.38L7.68017 42.672L7.91617 43.38V44.56L8.86017 44.324L9.33217 43.616V42.672L8.86017 42.2L10.9842 42.436V41.964Z" fill="#8C363E"/>
<path d="M21.8401 17.42H22.3121V21.432L21.1321 23.32L20.4241 23.792H18.3001V22.848H19.0081L19.4801 21.668L21.1321 19.544L19.9521 20.724L18.7721 21.904L17.8281 21.668L18.0641 20.016L19.7161 18.6L21.8401 17.42Z" fill="#7B9245"/>
<path d="M10.7481 13.408L11.2201 14.352L9.09612 17.184L7.20812 20.488L5.55612 23.792L4.37612 27.332L3.66812 30.636L3.43212 33.704L3.19612 34.176H2.72412V30.164L3.66812 26.152L5.32012 21.668L7.68012 17.42L9.56812 14.824L10.7481 13.408Z" fill="#C8A281"/>
<path d="M50.3962 39.84L51.3402 40.312L49.9242 41.964L46.8562 45.032L44.9682 46.684L43.0802 48.808L42.8442 57.068H42.1362V48.336L43.7882 46.448L50.3962 39.84Z" fill="#FDFBDE"/>
<path d="M9.56785 24.264H11.4558L12.6358 24.972L13.3438 25.916V28.04L12.1638 28.276L11.9278 27.568L7.44385 27.804L7.67985 25.68L9.09585 24.5L9.56785 24.264Z" fill="#A4B55B"/>
<path d="M64.5561 28.04L65.7361 28.276L65.9721 28.512V37.008L65.7361 43.38L64.3201 44.088L63.1401 43.852V42.672L63.3761 42.436H65.0281L64.7921 29.22L64.5561 28.04Z" fill="#927E4C"/>
<path d="M13.3442 28.984L14.9962 29.22L16.4122 30.4L16.8842 31.108V32.996L16.1762 34.176L15.4682 34.884L14.7602 35.12H12.6362L12.4002 34.412L14.9962 34.176L15.7042 33.232H16.1762V31.816H15.4682L14.2882 30.636L13.8162 31.816H13.3442L12.8722 32.76L11.4562 32.288L11.2202 32.052V30.636L12.4002 29.456L13.3442 28.984Z" fill="#8C3241"/>
<path d="M59.8361 12.464L60.7801 12.936L62.4321 14.824L64.5561 18.128L66.9161 23.084L67.6241 24.972L67.8601 28.04L67.3881 28.276L66.2081 24.264L64.0841 19.544L61.7241 15.768L59.6001 13.408L59.8361 12.464Z" fill="#7A864C"/>
<path d="M51.812 35.356L52.284 35.592L51.34 37.008L41.9 46.448L40.248 48.336H39.54L39.776 47.392L42.372 44.56L51.34 35.592L51.812 35.356Z" fill="#F1EFD3"/>
<path d="M34.8198 18.6H35.7638L35.5278 20.724L33.1678 21.432V25.444L33.4038 26.86L32.2238 27.096L31.2798 25.444V23.556L31.7518 20.96L32.9318 20.252L33.8758 19.072L34.8198 18.6Z" fill="#AB5350"/>
<path d="M54.4082 16.948H55.3522V32.524L54.4082 32.288V16.948Z" fill="#EEEAD1"/>
<path d="M59.5999 27.804H60.5439V34.648L59.1279 36.3L57.2399 37.952L54.6439 40.784L52.9919 42.436L52.0479 42.672L53.2279 41.02L54.6439 39.368L56.5319 37.48L57.4759 36.3L58.6559 35.356L59.3639 34.648L59.5999 27.804Z" fill="#EEE9CF"/>
<path d="M19.4798 43.144V43.852L18.2998 45.268L16.4118 46.684L14.5238 46.92L12.3998 49.28L10.7478 51.168L9.33184 53.056L8.15184 54.236H6.97184L6.73584 54L6.97184 52.348L7.44384 51.876L9.33184 51.404L11.4558 49.28L13.1078 47.392L14.7598 45.74L17.1198 45.268L19.0078 43.38L19.4798 43.144Z" fill="#E8C18B"/>
<path d="M59.5999 21.9041H61.4879L62.4319 22.3761L63.1399 23.3201V25.9161L62.6679 26.3881L62.1959 25.9161L61.9599 25.4441V23.7921L61.2519 23.3201L60.7799 24.7361L60.0719 25.2081H59.1279L58.8919 25.6801L58.4199 25.2081L57.9479 25.9161L57.7119 25.6801V23.5561L58.8919 22.3761L59.5999 21.9041Z" fill="#88984D"/>
<path d="M21.604 9.63196L23.256 9.86796L24.2 10.812V12.936L23.492 13.644L22.076 13.88L20.66 13.172L20.188 12.464V10.812L21.132 9.86796L21.604 9.63196Z" fill="#943235"/>
<path d="M14.288 30.4L15.468 31.344V31.816H16.176V33.232H15.704L15.232 34.176L14.996 34.412H12.4L12.164 34.884L10.984 33.704L10.748 33.232V31.108L11.22 30.636L11.692 32.288L12.872 32.524L13.816 31.58L14.288 30.4Z" fill="#6A252E"/>
<path d="M16.1759 24.264H18.2999L19.7159 25.208L20.4239 26.388L20.1879 26.86L18.0639 27.096L17.5919 27.332H15.9399L14.9959 27.096V27.568H14.5239V26.152L15.4679 24.736L16.1759 24.264Z" fill="#8E9443"/>
<path d="M50.1602 17.656L51.3402 17.892L51.8122 19.072L52.2842 21.904V27.332L51.8122 30.636L51.5762 31.108H50.6322L50.8682 28.984L51.1042 27.804V21.432L50.3962 18.836L50.1602 17.656Z" fill="#827B3F"/>
<path d="M28.4479 20.252H30.0999L29.6279 22.376L29.1559 24.264V27.332L29.3919 29.22L28.9199 28.276H27.7399L27.5039 27.804V23.084L28.2119 20.488L28.4479 20.252Z" fill="#E09589"/>
<path d="M6.26398 36.772H7.67998L7.91598 37.008L10.748 37.244V37.48L23.964 37.716V37.952H8.38798L8.15198 39.368L7.20798 40.076L6.02798 39.84L5.08398 38.896L5.31998 37.716L6.26398 36.772Z" fill="#AF7860"/>
<path d="M20.896 29.692H21.368L22.076 32.288L23.256 34.176L25.38 35.12V36.064H23.492L20.424 33.468L18.064 31.58V31.108L19.48 31.344L20.66 32.288V29.928L20.896 29.692Z" fill="#C88E68"/>
<path d="M19.7158 26.624H20.6598V28.04L19.4798 29.22L18.5358 29.692L16.8838 29.456L14.9958 28.276L14.7598 27.568L14.9958 27.096H17.5918L19.7158 26.624Z" fill="#777E31"/>
<path d="M48.0361 8.21594H49.4521L50.3961 9.15994V10.5759L49.6881 11.5199H49.2161V16.7119H48.7441L48.5081 13.8799V11.5199L47.5641 11.0479L47.3281 10.8119V8.92394L48.0361 8.21594Z" fill="#938D52"/>
<path d="M22.0762 65.564L23.4922 65.8L29.1562 67.688L34.8202 68.396L35.7642 68.632V69.34H32.9322L30.1002 68.868L24.9082 67.452L22.5482 66.508L22.0762 65.564Z" fill="#966D56"/>
<path d="M53.4642 11.52H56.0602L57.2402 12.7V13.88L56.5322 14.116L56.0602 12.936L55.5882 12.7L55.1162 13.88L54.6442 14.352H53.4642L53.2282 15.768L52.5202 15.532L52.2842 15.06V12.936L53.4642 11.52Z" fill="#A7B974"/>
<path d="M48.5078 13.88H48.7438V16.712H49.2158L49.4518 20.016L49.9238 23.084V27.804L49.2158 30.164L48.5078 30.4L48.7438 28.04L48.9798 26.388V23.556L48.5078 21.432V13.88Z" fill="#837448"/>
<path d="M2.72412 37.7159H3.43212L3.90412 41.7279L4.84812 45.5039L6.02812 48.8079L6.97212 50.9319V51.8759L6.26412 51.6399L4.61212 48.3359L3.43212 44.5599L2.72412 40.3119V37.7159Z" fill="#B58D74"/>
<path d="M61.0162 23.084L62.1962 23.792V25.68L62.6682 25.916L62.4322 26.86L61.2522 27.568H59.6002L57.9482 26.152L58.4202 24.972L58.8922 25.444L60.7802 24.5L61.0162 23.084Z" fill="#88A64C"/>
<path d="M41.664 57.776L43.788 58.012L44.968 59.428V61.08L44.024 62.496L43.08 62.968H41.428V62.732L43.08 62.26L44.024 61.08L44.496 60.844L44.26 60.608L43.788 59.664L43.08 59.192L42.372 60.372H40.484L40.248 60.136V58.72L40.956 58.012L41.664 57.776Z" fill="#748A42"/>
<path d="M55.5882 12.7L56.5322 13.172V14.116L57.0042 13.88L57.4762 13.172V14.824L56.5322 16.24L55.3522 16.948L53.9362 16.712L52.9922 15.768L53.4642 14.352L54.8802 13.88L55.5882 12.7Z" fill="#96B459"/>
<path d="M8.62402 55.1801L9.56802 55.4161L11.456 57.7761L13.344 59.6641L15.704 61.5521L19.244 63.9121V64.6201L17.828 64.1481L15.232 62.4961L12.164 59.6641L10.04 57.5401L8.62402 55.8881V55.1801Z" fill="#AB8063"/>
<path d="M60.5438 43.8521L61.4878 44.0881L61.7238 48.8081L62.1958 49.7521H61.0158L60.7798 50.9321L59.8358 51.6401L58.6558 51.4041V49.9881L59.8358 49.0441L60.3078 48.8081L60.5438 43.8521Z" fill="#FDFDE1"/>
<path d="M27.2682 46.92H27.5042V57.776L27.0322 58.012V59.192L25.8522 60.136H25.1442L24.9082 58.72L26.0882 57.304H26.7962L26.5602 49.988L27.0322 50.224L27.2682 46.92Z" fill="#94644E"/>
<path d="M42.8439 58.9561L44.0239 59.6641L44.2599 60.3721L44.7319 60.1361L44.4959 61.0801L43.3159 62.2601L42.6079 62.7321H41.1919L40.0119 61.5521L39.7759 61.0801V59.6641L40.2479 59.1921L40.4839 60.1361H42.3719L42.8439 58.9561Z" fill="#74933B"/>
<path d="M7.44417 25.916H7.68017V27.332L7.44417 27.804L10.5122 27.332H11.9282L12.4002 28.04L13.1082 28.276L10.2762 29.692H8.62417L6.97217 28.276V26.86L7.44417 25.916Z" fill="#848A37"/>
<path d="M29.3921 6.328H36.7081L40.4841 6.564L41.4281 7.272H29.8641L29.3921 6.328Z" fill="#FDFEEC"/>
<path d="M14.0521 52.584L15.7041 52.82L16.1761 53.764V55.652L15.4681 56.36H13.5801L12.8721 55.416L13.1081 54.472L13.8161 53.528L14.0521 52.584Z" fill="#3E1E25"/>
<path d="M30.0999 49.28H30.3359V53.528L31.2799 53.764L31.7519 54.472V55.652L31.0439 56.36H29.8639L28.9199 55.18L29.1559 53.764L29.3919 53.528L29.6279 49.516L30.0999 49.28Z" fill="#B47B59"/>
<path d="M5.08412 23.084H5.55612L5.32012 24.5L4.37612 27.332L3.66812 30.636L3.43212 33.704L3.19612 34.176H2.72412V30.164L3.66812 26.152L4.61212 23.32L5.08412 23.084Z" fill="#CAA68A"/>
<path d="M14.9959 12.464H16.6479L17.8279 13.172L18.2999 14.116H17.5919L15.9399 13.408V14.352L14.5239 15.296L13.5799 15.06L13.8159 16.476L13.1079 16.24V13.88L14.5239 12.7L14.9959 12.464Z" fill="#9C4D58"/>
<path d="M10.9839 41.964L11.9279 43.144L12.1639 43.616V45.74L11.2199 46.92L10.2759 46.448L10.7479 45.504V44.56H8.85986L9.33186 43.616V42.672L8.85986 42.2L10.9839 42.436V41.964Z" fill="#944043"/>
<path d="M51.1042 46.212L52.7562 46.448L53.4642 47.156V48.336L52.2842 49.516L50.8682 49.28L50.1602 48.1L50.3962 46.684L51.1042 46.212Z" fill="#7D8644"/>
<path d="M50.3961 39.84L51.3401 40.312L49.9241 41.964L46.8561 45.032L46.3841 44.796L44.4961 46.448L42.8441 48.1L42.3721 47.864L50.3961 39.84Z" fill="#E0DDBF"/>
<path d="M36.2358 18.6L37.4158 19.072L38.1238 20.016L40.9558 21.196L41.8998 22.612L42.1358 23.32L42.8438 23.792L42.6078 24.736H41.6638L40.7198 22.14L39.5398 21.432L36.7078 20.96L36.2358 20.724V18.6Z" fill="#7B9750"/>
<path d="M55.3519 42.908H55.5879L55.8239 55.652L55.3519 55.888L54.6439 57.068L53.2279 57.54L52.7559 57.068V55.652L53.9359 54.708H54.6439V55.18H55.3519V42.908Z" fill="#B7A387"/>
<path d="M35.292 21.9041L36.236 22.1401V26.6241L35.056 26.3881L34.112 25.4441L33.876 24.9721V23.3201L34.82 22.1401L35.292 21.9041Z" fill="#A06151"/>
<path d="M48.5078 5.14795L49.9238 5.38395L53.9358 7.27195L55.3518 8.45195L55.1158 9.15995L53.9358 8.68795L50.6318 7.03595L47.7998 5.85595V5.38395L48.5078 5.14795Z" fill="#777D45"/>
<path d="M20.6598 47.156H20.8958V49.752L21.6038 49.516L22.7838 50.224L23.0198 50.46L22.7838 52.112H21.8398L20.6598 52.348L19.7158 51.64V50.46L20.4238 49.752L20.6598 47.156Z" fill="#BF916D"/>
<path d="M36 22.14L37.18 22.376L38.124 23.556V25.208L37.18 26.388L36.236 26.624L36 26.388V22.14Z" fill="#628142"/>
<path d="M43.7881 36.772H45.4401L46.1481 37.48V38.896L45.2041 39.84L43.7881 39.604L43.0801 38.66V37.48L43.7881 36.772Z" fill="#7E8E4C"/>
<path d="M38.5962 21.668H39.7762L40.4842 23.556L40.7202 25.208L40.0122 27.096L38.8322 26.86L38.5962 26.388L38.8322 25.444V23.32L38.5962 21.668Z" fill="#758B3B"/>
<path d="M54.6438 62.7319H55.5878L55.1158 63.6759L52.0478 65.5639L49.9238 66.5079H49.4518L49.2158 66.0359V64.1479L49.4518 63.6759H50.1598L50.3958 65.3279L51.1038 65.0919L51.8118 64.3839L54.6438 62.7319Z" fill="#5F3F2B"/>
<path d="M39.3042 47.864L39.5402 48.336L40.4842 48.1V55.652H39.7762L39.3042 51.876V47.864Z" fill="#88694F"/>
<path d="M41.1918 25.444H41.4278V27.096L40.2478 28.276L36.7078 29.928H36.2358V28.04L36.7078 27.568H40.4838L40.7198 26.152L41.1918 25.444Z" fill="#7AA33E"/>
<path d="M65.0281 36.536H65.7361V43.38L64.3201 44.088L63.1401 43.852V42.672L63.3761 42.436H65.0281V36.536Z" fill="#B49E6E"/>
<path d="M40.4839 39.84H41.8999L42.6079 40.784L42.3719 42.436L41.6639 42.908H40.4839L39.7759 42.2V40.548L40.4839 39.84Z" fill="#6A7331"/>
<path d="M42.6078 67.688H44.4958V68.16L42.3718 68.868L38.3598 69.34H36.2358V68.396L41.4278 67.924L42.6078 67.688Z" fill="#697A2D"/>
<path d="M59.1279 35.356L59.3639 36.064L57.0039 38.188L54.8799 40.548L52.9919 42.436L52.0479 42.672L53.2279 41.02L54.6439 39.368L56.5319 37.48L57.4759 36.3L59.1279 35.356Z" fill="#F4F3DD"/>
<path d="M32.9321 2.78796H35.2921V3.96796L30.1001 4.20396L28.2121 4.43996V3.96796L27.2681 3.73196L30.5721 3.02396L32.9321 2.78796Z" fill="#D1AD89"/>
<path d="M46.6198 60.136L47.0918 60.844L47.3278 61.788L47.5638 65.092V67.452L46.3838 67.688V60.372L46.6198 60.136Z" fill="#C3AF80"/>
<path d="M20.6598 62.024H21.8398L22.5478 62.732L22.3118 64.384L21.8398 65.092H20.1878L19.7158 64.856V62.968L20.6598 62.024Z" fill="#AB7156"/>
<path d="M16.6478 14.3521L17.8278 14.5881V16.4761L16.8838 17.1841H14.5238L14.0518 15.5321H15.2318L16.4118 14.8241L16.6478 14.3521Z" fill="#702532"/>
<path d="M28.92 37.952H29.392L28.92 39.132L21.84 46.212L21.604 45.504L25.144 41.964L25.852 40.784L27.976 38.66L28.684 38.424L28.92 37.952Z" fill="#EBD8A8"/>
<path d="M20.8961 17.892L21.8401 18.128L20.1881 20.488L18.7721 21.904L17.8281 21.668L18.0641 20.016L19.7161 18.6L20.8961 17.892Z" fill="#BACC7D"/>
<path d="M8.86018 41.256H10.9842V42.436L10.2762 42.672H9.56818L9.33218 44.088L8.62418 44.796L7.68018 44.56V42.436L8.86018 41.256Z" fill="#BF7964"/>
<path d="M48.508 58.72L50.16 58.956L50.868 59.9L50.632 61.552L50.16 62.024H48.744V61.316L49.688 60.844L49.452 60.136L48.508 60.372L48.272 60.844H47.564V59.428L48.508 58.72Z" fill="#7C7F40"/>
<path d="M30.8081 31.816H31.5161V32.288L33.6401 32.76L35.7641 33.232V34.648L33.4041 34.412L31.7521 33.704L31.2801 32.76L30.8081 31.816Z" fill="#79273D"/>
<path d="M59.1278 16.712H60.5438L61.2518 17.42V19.072L60.5438 19.544H59.3638L58.6558 18.836V17.184L59.1278 16.712Z" fill="#D2CF9E"/>
<path d="M15.9399 24.5H17.3559V26.388L16.8839 27.096H14.9959V27.568H14.5239V26.152L15.4679 24.736L15.9399 24.5Z" fill="#D7E6A8"/>
<path d="M13.5799 51.64H15.7039V52.348L16.1759 52.584L14.0519 52.348V53.528L13.1079 54.708H11.6919L11.9279 53.292L13.1079 51.876L13.5799 51.64Z" fill="#C78B6F"/>
<path d="M55.5882 54.944L57.0042 55.652L57.7122 56.596V58.72L56.7682 59.9L55.1162 60.136V59.192L56.0602 58.72L57.0042 56.596L55.3522 55.888L55.5882 54.944Z" fill="#8EA44A"/>
<path d="M49.4521 49.752H50.1601V58.012H49.4521V49.752Z" fill="#DAB68D"/>
<path d="M44.732 42.2V42.908L44.26 43.38L43.788 44.56L41.9 46.448L40.248 48.336H39.54L39.776 47.392L42.372 44.56L44.732 42.2Z" fill="#F5F3CF"/>
<path d="M8.85985 24.972L10.0398 25.208L9.80385 27.332L9.33185 27.804H7.44385L7.67985 25.68L8.85985 24.972Z" fill="#EBF5C2"/>
<path d="M26.0878 3.96802H28.2118V4.44002L23.2558 6.09202L21.6038 6.80002V6.09202L21.1318 5.85602L24.6718 4.44002L26.0878 3.96802Z" fill="#DDBF94"/>
<path d="M2.72412 37.7159H3.43212L3.90412 41.7279L4.37612 43.8519V45.5039H3.90412L3.43212 44.5599L2.72412 40.3119V37.7159Z" fill="#C39D80"/>
<path d="M55.3519 56.124L56.2959 56.596L56.5319 58.248L55.5879 59.192H54.1719L53.4639 58.72V57.776L55.3519 57.304V56.124Z" fill="#472F1E"/>
<path d="M48.5078 13.88H48.7438V16.712H49.2158L49.4518 20.016L49.6878 22.612H49.2158L48.9798 23.556L48.5078 21.432V13.88Z" fill="#7E7942"/>
<path d="M61.0158 23.084L62.1958 23.792V25.444L61.4878 26.388H59.5998L59.3638 25.444L60.7798 24.5L61.0158 23.084Z" fill="#3F2E1C"/>
<path d="M14.9959 20.252L15.7039 20.488L15.4679 22.14L14.2879 23.084L12.8719 22.848L12.3999 22.376V21.668L14.5239 20.96V20.488L14.9959 20.252Z" fill="#69701D"/>
<path d="M51.3398 22.848H51.5758V27.096H52.0478L52.2838 26.388L51.8118 30.636L51.5758 31.108H50.6318L50.8678 28.984L51.1038 27.804L51.3398 22.848Z" fill="#736A39"/>
<path d="M55.5879 12.7L56.5319 13.172V14.588L55.3519 15.768L54.1719 15.532L53.4639 14.824V14.352L54.8799 13.88L55.5879 12.7Z" fill="#3D2E1E"/>
<path d="M28.4482 6.328L29.6282 6.564L29.8642 7.036L32.2242 7.272V7.508H29.6282L29.3922 8.924L28.2122 10.104H27.7402L27.9762 7.98L28.4482 6.328Z" fill="#EFEFDA"/>
<path d="M22.0762 65.564L23.4922 65.8L27.7402 67.216L27.9762 68.16L25.6162 67.688L22.5482 66.508L22.0762 65.564Z" fill="#956750"/>
<path d="M10.984 30.636H11.22L11.692 32.288L12.636 32.524V32.996H12.164V33.94L14.76 34.176V33.704L15.94 32.76L16.176 33.232H15.704L15.232 34.176L14.996 34.412H12.4L12.164 34.884L10.984 33.704L10.748 33.232V31.108L10.984 30.636Z" fill="#8A2B38"/>
<path d="M12.1641 18.6H14.0521L13.8161 20.252L12.8721 21.196L11.6921 20.96L11.4561 19.544L12.1641 18.6Z" fill="#F6F6E5"/>
<path d="M8.85984 51.64H9.09584L9.33184 53.056L8.15184 54.236H6.97184L6.73584 54L6.97184 52.348L7.44384 51.876L8.85984 51.64Z" fill="#D7C194"/>
<path d="M27.5042 59.6639L28.6842 60.1359L28.4482 61.3159L27.7402 61.7879L26.0882 61.5519L25.6162 60.8439V60.1359L27.5042 59.6639Z" fill="#511D26"/>
<path d="M42.8441 58.9561L44.0241 59.6641L43.7881 61.0801L42.8441 61.7881H41.6641L40.9561 61.0801L41.1921 60.3721L42.6081 59.9001L42.8441 58.9561Z" fill="#332515"/>
<path d="M52.992 41.02L53.464 41.256L52.284 42.436L52.52 42.908L50.632 44.56L49.216 45.74L48.272 45.504L52.52 41.256L52.992 41.02Z" fill="#EEECCE"/>
<path d="M12.1642 29.692H13.3442L13.5802 30.872L12.1642 32.524L11.2202 32.052V30.636L12.1642 29.692Z" fill="#F6F0EA"/>
<path d="M19.4801 47.156H20.1881L19.9521 48.1L17.8281 50.224L16.1761 52.348H15.7041L15.9401 51.168L18.5361 48.336L19.4801 47.156Z" fill="#E6D4A7"/>
<path d="M62.4321 29.22H63.1401V36.064L62.4321 36.536V35.828H62.9041L62.4321 35.12V29.22Z" fill="#F0E4B1"/>
<path d="M61.4881 50.224L62.4321 50.696L62.6681 52.112L61.4881 53.292H60.0721L59.6001 52.112L61.4881 51.876V50.224Z" fill="#49341B"/>
<path d="M14.2879 9.86804L15.2319 10.104L14.7599 11.048L12.3999 12.936L11.4559 14.116H10.9839L11.2199 12.936L14.2879 9.86804Z" fill="#D7B88B"/>
<path d="M34.8201 18.6H35.7641L35.5281 20.724H32.9321L33.4041 19.544L34.8201 18.6Z" fill="#EBCDAA"/>
<path d="M25.852 45.504L26.324 46.448L24.908 47.628L24.436 49.28L23.256 49.516L23.02 48.336L24.2 47.156L25.852 45.504Z" fill="#C0956E"/>
<path d="M47.7998 32.052L49.4518 32.288L50.1598 32.996V34.412L49.6878 34.648L49.2158 33.468H48.2718L47.5638 34.412H47.0918V32.76L47.7998 32.052Z" fill="#A0AE6C"/>
<path d="M9.56818 24.264H11.4562L12.1642 24.5V25.208L10.5122 26.388L10.0402 27.568L9.56818 27.332L9.80418 25.208H8.38818L9.09618 24.5L9.56818 24.264Z" fill="#BEB988"/>
<path d="M58.8922 22.376H60.0722L60.5442 22.848L60.3082 23.792L59.3642 24.736H58.6562L57.9482 24.028L58.1842 22.848L58.8922 22.376Z" fill="#F9FCF2"/>
<path d="M27.5039 57.304L28.6839 57.776L29.6279 58.956V60.136H28.9199V59.428L27.5039 59.192L26.7959 59.664V57.776H27.5039V57.304Z" fill="#913134"/>
<path d="M54.4082 33.9399L55.5882 34.1759L56.0602 34.6479L55.8242 35.8279L55.1162 36.2999H54.1722L53.7002 35.5919L53.9362 34.4119L54.4082 33.9399Z" fill="#482B28"/>
<path d="M13.8159 19.308L14.7599 19.78L14.5239 20.96L13.3439 21.668H12.1639V22.14L11.2199 21.904L10.9839 20.252L11.6919 20.488L11.9279 20.96L13.1079 20.724L13.5799 20.252L13.8159 19.308Z" fill="#BFC47B"/>
<path d="M8.62402 55.1801L9.56802 55.4161L11.456 57.7761L12.872 59.4281L11.692 59.1921L10.04 57.5401L8.62402 55.8881V55.1801Z" fill="#75493E"/>
<path d="M53.2279 55.1801H54.4079L54.8799 55.8881L54.6439 57.0681L53.2279 57.5401L52.7559 57.0681V55.6521L53.2279 55.1801Z" fill="#EEEEC7"/>
<path d="M60.5439 22.848L61.0159 23.32V24.5L60.0719 25.208H59.1279L58.8919 25.68L58.4199 25.208L57.9479 25.916L57.7119 25.68V23.556L57.9479 24.028L58.6559 24.264V24.736L59.8359 24.028L60.5439 22.848Z" fill="#9CAC58"/>
<path d="M66.6802 23.084L67.1522 23.792L67.6242 24.972L67.8602 28.04L67.3882 28.276L66.2082 24.264L65.9722 23.556L66.6802 23.084Z" fill="#7A7E49"/>
<path d="M53.2279 11.756H54.8799V12.936L53.6999 14.116L52.7559 13.644V12.228L53.2279 11.756Z" fill="#F3F6E2"/>
<path d="M59.3638 49.28L60.5438 49.516V51.168L59.8358 51.64L58.6558 51.404V49.988L59.3638 49.28Z" fill="#F9FAE1"/>
<path d="M10.7479 44.324H10.9839V45.504L10.2759 46.212H8.85986L8.15186 45.74V45.268L8.85986 44.56L10.7479 44.324Z" fill="#52202A"/>
<path d="M48.5081 32.996L49.4521 33.468L49.6881 33.704V34.884L48.9801 35.356L47.8001 35.12L47.3281 34.412L48.5081 32.996Z" fill="#859649"/>
<path d="M36.2358 18.6L37.4158 19.072L38.1238 20.016L38.8318 20.252L38.5958 20.96H36.7078L36.2358 20.724V18.6Z" fill="#89B44E"/>
<path d="M48.0361 8.21594H49.4521L49.9241 8.68794V9.39594L48.2721 10.1039L47.3281 10.3399V8.92394L48.0361 8.21594Z" fill="#F7F9EC"/>
<path d="M40.956 58.012L42.136 58.248L41.9 59.9L41.428 60.372L40.248 60.136V58.72L40.956 58.012Z" fill="#F2F1D3"/>
<path d="M26.5601 49.988L27.2681 50.224V57.304H26.7961L26.5601 49.988Z" fill="#C8A074"/>
<path d="M13.3439 28.984L14.9959 29.22L16.1759 30.164V30.872L14.0519 30.4L13.8159 31.108L13.3439 30.872V29.928L12.3999 29.456L13.3439 28.984Z" fill="#9C3B4A"/>
<path d="M54.644 50.224H55.352V55.18H54.644V50.224Z" fill="#FBFBDB"/>
<path d="M27.0321 44.324L27.2681 45.032V50.224L26.7961 50.46V45.976L25.8521 46.212L26.3241 45.032L27.0321 44.324Z" fill="#E1B58A"/>
<path d="M50.1602 17.656L51.3402 17.892L51.8122 19.072L52.0482 21.432L51.5762 20.96L51.1042 21.432L50.3962 18.836L50.1602 17.656Z" fill="#7D8635"/>
<path d="M12.6362 48.3361V49.0441L10.5122 51.4041L9.33219 52.8201H9.09619V51.6401L11.6922 49.0441L12.6362 48.3361Z" fill="#EBD5A3"/>
<path d="M56.0599 38.424L56.2959 39.132L52.9919 42.4359L52.0479 42.6719L53.2279 41.02L54.4079 39.604L55.5879 38.896L56.0599 38.424Z" fill="#F2F0E0"/>
<path d="M59.8361 12.464L60.7801 12.936L62.4321 14.824L61.9601 15.06L61.7241 15.768L59.6001 13.408L59.8361 12.464Z" fill="#767143"/>
<path d="M21.132 57.304L21.604 57.54V62.26H20.896V57.54L21.132 57.304Z" fill="#DBAF85"/>
<path d="M24.9082 37.244H29.3922L30.1002 37.952V39.132H29.6282V38.66L29.1562 38.424L29.3922 37.952H28.9202L28.6842 38.66L28.2122 38.424L28.4482 38.188L25.1442 37.952L24.9082 37.244Z" fill="#D4BF96"/>
<path d="M18.2998 15.7679H18.5358V16.9479L17.1198 18.1279L14.9958 17.8919L14.7598 17.4199L17.3558 16.7119L18.2998 15.7679Z" fill="#AC4450"/>
<path d="M14.2881 13.172H15.7041L15.4681 14.588L14.5241 15.296L13.5801 15.06L13.8161 13.644L14.2881 13.172Z" fill="#F5F1E2"/>
<path d="M54.6439 62.7319H55.5879L55.1159 63.6759L52.7559 65.0919H52.0479L52.2839 64.1479L54.6439 62.7319Z" fill="#6C7031"/>
<path d="M61.2521 49.988L61.7241 50.224L61.4881 51.876L61.0161 52.112H59.6001L60.0721 53.056L59.6001 54L58.6561 53.528L58.1841 52.584L58.4201 52.112L61.0161 51.64L61.2521 49.988Z" fill="#7E8332"/>
<path d="M62.1961 49.28L62.9041 49.988L61.7241 50.224L61.2521 49.988L61.0161 51.64L60.5441 51.876H59.1281L58.8921 52.348L58.4201 52.112L58.1841 52.584V50.696L58.6561 50.224L58.8921 51.404L60.0721 51.168L60.7801 50.46L61.0161 49.752H62.1961V49.28Z" fill="#9FA854"/>
<path d="M53.7002 37.244H54.1722L53.7002 38.188L51.5762 40.312L50.8682 40.076L51.3402 38.896L52.9922 37.48L53.7002 37.244Z" fill="#EDECD3"/>
<path d="M2.25179 34.6479H3.43179L3.90379 35.1199V36.2999L2.25179 36.5359L1.77979 36.0639L2.01579 34.8839L2.25179 34.6479Z" fill="#E0BB88"/>
<path d="M53.228 57.776L53.7 58.72L55.116 59.192V60.136L55.824 60.372H53.936L52.756 59.428L52.52 58.72L53.228 57.776Z" fill="#7A903D"/>
<path d="M27.5041 58.9561L28.4481 59.1921L28.9201 59.4281V60.1361H29.6281L29.8641 59.4281V60.8441L28.9201 61.3161H28.2121L28.4481 60.1361L27.5041 59.9001L25.8521 60.1361L26.7961 59.1921H27.2681L27.5041 58.9561Z" fill="#7E2B33"/>
<path d="M41.6642 57.776H43.0802L43.7882 58.484V59.192H43.0802L42.3722 60.372L41.4282 60.136L41.9002 59.428V58.248L41.6642 57.776Z" fill="#A9BC61"/>
<path d="M28.9199 37.952H29.3919L28.9199 39.132L26.5599 41.492L26.0879 40.548L27.9759 38.66L28.6839 38.424L28.9199 37.952Z" fill="#EDE1B3"/>
<path d="M33.6398 27.332H35.2918L35.7638 27.568V28.984L34.1118 28.748L33.4038 28.276L33.6398 27.332Z" fill="#AE4143"/>
<path d="M32.6958 23.556H32.9318L33.4038 26.86L32.2238 27.096L31.2798 25.444L31.5158 24.972L32.6958 25.208V23.556Z" fill="#903338"/>
<path d="M47.3278 59.9L47.5638 60.844H48.2718L48.7438 59.9L49.6878 60.136V61.08L48.7438 61.316V62.024L47.7998 61.552L47.3278 61.316L47.0918 61.788L47.3278 59.9Z" fill="#686035"/>
<path d="M11.9279 54.472L12.8719 54.708L13.5799 56.124L14.9959 56.36V56.596L12.6359 57.068L11.6919 55.652L11.9279 54.472Z" fill="#9A413D"/>
<path d="M34.8198 22.14H35.7638V24.264H34.1118V22.848L34.8198 22.14Z" fill="#F9F2E3"/>
<path d="M59.1278 16.712H60.5438V17.656L60.0718 18.128H59.3638L59.5998 19.308L58.6558 18.836V17.184L59.1278 16.712Z" fill="#F2F1D6"/>
<path d="M16.4119 15.296H17.3559L17.1199 16.948H14.7599L14.5239 16.24L16.4119 15.296Z" fill="#4C2027"/>
<path d="M8.15218 42.672H9.56818L9.33218 44.088L8.62418 44.796L7.68018 44.56L7.91618 42.908L8.15218 42.672Z" fill="#F3EAE3"/>
<path d="M14.9961 20.016L15.9401 20.252V22.14H15.4681L15.7041 20.488L14.9961 20.252V20.016ZM12.1641 21.668L13.3441 22.848L14.5241 22.612L15.4681 22.14L15.2321 23.084L13.3441 23.556L11.9281 22.848L11.4561 22.14H12.1641V21.668Z" fill="#7A9733"/>
<path d="M31.9878 68.396H34.8198L35.7638 68.632V69.34H32.9318L32.2238 69.104L31.9878 68.396Z" fill="#A98460"/>
<path d="M46.6198 60.136L47.0918 60.844V65.092H46.6198L46.3838 63.912V60.372L46.6198 60.136Z" fill="#EADAAE"/>
<path d="M33.1681 27.332L33.6401 27.568V28.276L35.7641 28.984L35.5281 29.692L33.8761 29.928L32.9321 28.512V28.04L32.2241 27.804L33.1681 27.332Z" fill="#552332"/>
<path d="M16.1759 62.024L17.8279 62.968L19.2439 63.912V64.62L17.8279 64.148L15.9399 62.968L16.1759 62.024Z" fill="#A3785E"/>
<path d="M14.5239 45.976H16.6479L16.1759 46.448L14.2879 47.156L13.1079 48.572L11.6919 49.044L13.1079 47.392L14.5239 45.976Z" fill="#F1CD88"/>
<path d="M36.7078 27.568H37.1798L37.8878 28.748L38.5958 28.984L36.7078 29.928H36.2358V28.04L36.7078 27.568Z" fill="#6F9231"/>
<path d="M15.9399 13.408L17.3559 13.644L18.0639 14.116L18.5359 13.88L18.7719 14.588V16.476L18.2999 16.004L17.8279 16.24V14.588L16.8839 14.352V13.88L15.9399 14.116V13.408Z" fill="#893641"/>
<path d="M25.6162 58.012L26.7962 58.248L26.5602 59.428L25.8522 60.136H25.1442L24.9082 58.72L25.6162 58.012Z" fill="#F3ECDE"/>
<path d="M20.8961 19.308L21.3681 19.544L19.0081 22.848L18.3001 23.084L17.8281 23.556V21.668L19.0081 21.432L20.8961 19.308Z" fill="#4D4824"/>
<path d="M41.664 45.2679L41.9 45.9759L41.428 47.1559L40.248 48.3359H39.54L39.776 47.3919L41.664 45.2679Z" fill="#EEE6BC"/>
<path d="M27.7402 28.276H28.9202L30.1002 29.692L29.8642 30.4L29.3922 29.928L29.1562 30.872L28.2122 29.692L27.7402 28.276Z" fill="#B2535C"/>
<path d="M20.4241 26.624H20.6601V28.04L19.4801 29.22L17.8281 29.456L18.3001 28.512L19.7161 27.804L20.4241 26.624Z" fill="#7C9148"/>
<path d="M16.1759 24.264H17.8279L18.0639 24.5V27.096L17.5919 27.332H15.9399L16.8839 26.86L17.3559 24.5H16.1759V24.264Z" fill="#ABBD60"/>
<path d="M19.2441 19.5439L19.7161 20.2519L19.4801 21.1959L18.7721 21.9039L17.8281 21.6679V20.4879L19.2441 19.5439Z" fill="#C8D97F"/>
<path d="M22.0758 37.244H24.9078L28.9198 37.48V37.716L25.1438 37.952L24.6718 38.424L24.1998 38.188V37.716H21.8398L22.0758 37.244Z" fill="#EBD5A4"/>
<path d="M42.6079 3.49597L44.9679 3.73197L45.4399 4.20397L45.2039 4.67597L45.6759 4.91197L43.5519 4.67597L42.6079 4.43997V3.49597Z" fill="#788048"/>
<path d="M60.5439 43.8521L61.2519 44.0881H60.7799L61.0159 49.2801H62.1959V49.7521H61.0159L60.7799 50.9321H60.5439L60.3079 49.5161L59.8359 49.0441L60.3079 48.8081L60.5439 43.8521Z" fill="#C3B699"/>
<path d="M56.5319 41.02L57.0039 41.256L56.0599 42.672L55.3519 42.908L55.1159 47.628H54.8799V42.436L56.5319 41.02Z" fill="#F7F5D2"/>
<path d="M10.7479 21.432H11.2199L12.1639 22.848L13.8159 23.556V24.028L11.6919 23.32L10.5119 23.084L10.2759 21.904L10.7479 21.432Z" fill="#38201F"/>
<path d="M49.924 8.92395L50.396 9.15995V10.576L49.688 11.284L49.452 10.576L48.272 10.34V9.86795L48.98 9.39595H49.924V8.92395Z" fill="#A2B067"/>
<path d="M39.3042 49.752H39.5402L40.0122 53.056L40.4842 53.528V55.652H39.7762L39.3042 51.876V49.752Z" fill="#7E6A45"/>
<path d="M50.6322 46.448H51.8122L52.0482 47.392L51.1042 48.336L50.1602 48.1L50.3962 46.684L50.6322 46.448Z" fill="#E5E7CB"/>
<path d="M40.4839 39.84H41.6639V41.02L41.1919 41.492H39.7759L40.0119 40.076L40.4839 39.84Z" fill="#ECEFDD"/>
<path d="M43.7881 36.772H45.2041V37.716L44.0241 38.424H43.0801L43.3161 37.244L43.7881 36.772Z" fill="#CAD89C"/>
<path d="M56.532 34.884H56.768V36.064L55.824 37.008H54.408L53.936 36.772L54.172 36.064L55.588 35.828L56.532 34.884Z" fill="#F7F5C5"/>
<path d="M61.96 15.0601L62.904 15.5321L63.848 16.9481L63.376 18.1281L62.668 17.1841L61.96 16.0041V15.0601Z" fill="#777A46"/>
<path d="M38.3598 68.16H40.2478V68.396L38.3598 68.632V69.34H36.2358V68.396L38.3598 68.16Z" fill="#5F5B32"/>
<path d="M8.38802 25.6801L9.33202 26.1521V27.8041H8.15202L7.91602 27.5681V26.1521H8.38802V25.6801Z" fill="#FAFBF0"/>
<path d="M55.3521 11.52L56.5321 11.756L57.2401 12.7V13.88L56.5321 14.116L56.0601 12.936L55.3521 12.464V11.52Z" fill="#A2B75A"/>
<path d="M18.064 31.108L19.48 31.344L21.132 32.76V32.996H19.716L18.064 31.58V31.108Z" fill="#BF916D"/>
<path d="M58.4202 24.972L58.8922 25.444H59.6002L59.8362 26.388L60.0722 27.332L58.8922 27.096L57.9482 25.916L58.4202 24.972Z" fill="#97A54D"/>
<path d="M59.5999 21.9041H61.4879L62.4319 22.3761V22.8481L60.7799 23.3201V22.8481L59.1279 22.3761L59.5999 21.9041Z" fill="#899B54"/>
<path d="M15.4679 20.488H15.7039L15.4679 22.14L14.2879 23.084L12.8719 22.848L12.3999 22.376V21.668H13.1079V22.612L15.2319 21.432L15.4679 20.488Z" fill="#768821"/>
<path d="M48.036 58.9561H49.452L49.216 59.9001L48.272 60.8441H47.564V59.4281L48.036 58.9561Z" fill="#898D4E"/>
<path d="M53.4639 57.776H55.1159V58.72L55.8239 58.956L55.5879 59.192H54.1719L53.4639 58.72V57.776Z" fill="#362514"/>
<path d="M62.6679 34.884L62.9039 35.828H62.4319L62.1959 37.008L60.7799 38.188L60.5439 37.244L62.1959 35.592L62.6679 34.884Z" fill="#F0EED3"/>
<path d="M40.0119 59.192L40.4839 60.136L41.1919 60.608V61.552H40.7199L40.9559 62.496L40.0119 61.552L39.7759 61.08V59.664L40.0119 59.192Z" fill="#7E9147"/>
<path d="M12.8719 52.584H13.8159V53.764L13.1079 54.708H12.3999V53.292L12.8719 52.584Z" fill="#F3EADA"/>
<path d="M8.86017 51.64H9.09617L9.33217 53.056L8.62417 53.764L7.68017 52.82L6.97217 52.348L7.44417 51.876L8.86017 51.64Z" fill="#CFA575"/>
<path d="M57.7121 43.616H58.8921V45.268L57.9481 45.504L57.4761 44.796L57.7121 43.616Z" fill="#D0CE6F"/>
<path d="M30.8081 31.816H31.5161V32.288L33.6401 32.76L34.1121 33.232L32.6961 33.704L31.5161 32.996L30.8081 32.288V31.816Z" fill="#811C33"/>
<path d="M11.928 26.3881H12.636L13.108 27.3321L13.344 28.0401L12.164 28.2761L11.928 27.5681H10.04L10.748 26.8601L11.928 26.3881Z" fill="#9AAC4B"/>
<path d="M56.2962 58.484H56.7682V58.956H57.2402L56.7682 59.9L55.1162 60.136V59.192L56.2962 58.484Z" fill="#8EAD4E"/>
<path d="M48.9798 26.3881H49.2158V27.8041H49.6878L49.4518 29.2201L48.9798 30.4001H48.5078L48.7438 28.0401L48.9798 26.3881Z" fill="#7F7244"/>
<path d="M59.8361 53.056L61.4881 53.292L61.2521 54.236L61.9601 54.472H59.8361L59.6001 53.292L59.8361 53.056Z" fill="#849D44"/>
<path d="M64.5562 28.04L65.7362 28.276V32.996H65.5002V29.456L64.7922 29.22L64.5562 28.04Z" fill="#A59557"/>
<path d="M31.2801 25.444L31.9881 26.388L32.6961 27.096L33.1681 27.568L31.7521 27.804L31.0441 27.096L30.8081 25.916L31.2801 25.444Z" fill="#4A191F"/>
<path d="M15.9398 24.5H17.3558V26.388L16.6478 27.096V25.208L15.4678 24.972L15.9398 24.5Z" fill="#CAE38A"/>
<path d="M52.5202 12.464H52.7562L53.4642 14.824L53.2282 15.768L52.5202 15.532L52.2842 15.06V12.936L52.5202 12.464Z" fill="#A2BB57"/>
<path d="M48.7438 45.504H49.2158L48.7438 46.448L47.0918 47.864L46.3838 48.1L46.8558 47.156L47.7998 45.976L48.7438 45.504Z" fill="#F7F5D5"/>
<path d="M29.6281 39.132H30.1001L30.3361 40.076L30.1001 43.38H29.8641V42.2L29.3921 41.964L29.6281 39.132Z" fill="#C69A75"/>
<path d="M2.72412 37.7159H3.43212V41.0199H2.96012L2.72412 40.3119V37.7159Z" fill="#D4AF96"/>
<path d="M6.02799 37.0081L7.20799 37.2441V38.4241L6.97199 38.6601H5.79199V37.2441L6.02799 37.0081Z" fill="#F6EDDC"/>
<path d="M39.7759 41.4919H40.9559V41.9639L41.8999 42.1999L41.6639 42.9079H40.4839L39.7759 42.1999V41.4919Z" fill="#8D9A54"/>
<path d="M47.3278 32.524H49.2158L47.7998 34.176L47.0918 34.412V32.76L47.3278 32.524Z" fill="#C0C77F"/>
<path d="M10.0399 24.972H12.1639L10.9839 25.916L10.2759 26.86L10.0399 27.568L9.56787 27.332L10.0399 24.972Z" fill="#CDDA86"/>
<path d="M48.0361 10.104L49.4521 10.576L49.6881 11.52H48.0361L47.3281 10.812V10.34L48.0361 10.104Z" fill="#AAB771"/>
<path d="M16.4118 8.45203L17.3558 8.92403L16.1758 9.86803L15.2318 10.34L14.7598 9.63203L16.4118 8.45203Z" fill="#E3C499"/>
<path d="M46.1481 44.088L46.8561 44.324L44.0241 46.92L42.8441 48.1L42.3721 47.864L46.1481 44.088Z" fill="#E8E6C8"/>
<path d="M63.1401 42.672H64.5561L64.7921 43.852L63.3761 44.088L63.1401 43.852V42.672Z" fill="#D1BC67"/>
<path d="M23.9639 37.7159L24.1999 38.1879H24.6719L24.1999 39.1319L23.2559 40.0759L22.5479 39.8399L23.0199 38.8959L23.9639 37.7159Z" fill="#E0BF90"/>
<path d="M36.708 2.78796H38.36L39.068 3.25996L39.304 3.73196H36.708V2.78796Z" fill="#7E8849"/>
<path d="M52.5202 56.124L52.9922 57.068H53.9362L54.4082 57.304L54.1722 57.776H53.2282L52.7562 58.72L52.2842 58.248V56.596L52.5202 56.124Z" fill="#98A356"/>
<path d="M62.1961 39.84H62.9041V40.784L61.4881 41.728H61.0161L61.2521 40.548L62.1961 39.84Z" fill="#C9B07D"/>
<path d="M14.0521 18.6L15.7041 19.072L16.6481 20.252V21.904H16.4121L15.9401 20.016L14.7601 19.544L13.5801 19.072L14.0521 18.6Z" fill="#96AC5E"/>
<path d="M53.2282 14.824L54.1722 15.296L54.4082 15.768L54.1722 16.476H55.5882L55.3522 16.948L53.9362 16.712L52.9922 15.768L53.2282 14.824Z" fill="#8A9E49"/>
<path d="M26.088 3.96802H28.212V4.44002L26.796 4.91202L25.144 4.67602L26.088 3.96802Z" fill="#DEC29A"/>
<path d="M23.2561 39.84V40.548L20.4241 43.38L19.9521 43.144L21.8401 41.02L23.2561 39.84Z" fill="#492B25"/>
<path d="M21.1322 10.104L22.0762 10.34V11.52L20.8962 11.756L20.6602 10.812L21.1322 10.104Z" fill="#F5ECDC"/>
<path d="M59.6001 52.1121L61.9601 52.3481V53.0561L61.4881 53.2921H60.0721L59.6001 52.1121Z" fill="#371F17"/>
<path d="M23.964 47.864L24.436 48.1V49.28L23.256 49.516L23.02 48.336L23.964 47.864Z" fill="#D39F7B"/>
<path d="M16.6478 14.3521L17.8278 14.5881V16.4761L17.1198 16.9481L17.3558 15.2961H16.1758L16.6478 14.3521Z" fill="#682C34"/>
<path d="M24.436 51.876H25.144L24.672 52.82L23.492 54H23.02L23.256 53.056L24.436 51.876Z" fill="#D7A472"/>
<path d="M61.2518 44.088H61.4878L61.7238 48.808V49.516L60.7798 49.28L61.0158 48.572L61.2518 44.088Z" fill="#EAE1C1"/>
<path d="M5.79214 20.724L6.50014 21.668L5.79214 23.32H4.84814L5.55614 21.196L5.79214 20.724Z" fill="#C39F81"/>
<path d="M40.484 3.02405L42.608 3.26005V4.20405L40.248 3.73205L40.484 3.02405Z" fill="#727C40"/>
<path d="M42.6082 67.688H44.4962V68.16L43.5522 68.632H42.3722L41.4282 67.924L42.6082 67.688Z" fill="#605F35"/>
<path d="M41.192 25.444H41.428V27.096L40.012 28.276V27.804L39.54 27.568H40.484L40.72 26.152L41.192 25.444Z" fill="#757449"/>
<path d="M19.952 21.196L20.188 21.668L19.48 23.084H19.008V23.792L18.064 23.556L18.3 22.848H19.008L19.48 21.668L19.952 21.196Z" fill="#707540"/>
<path d="M14.0519 12.936L14.5239 13.172L13.8159 14.116L13.5799 15.296L13.8159 16.476L13.1079 16.24V13.88L14.0519 12.936Z" fill="#87474C"/>
<path d="M27.5042 59.6639L28.6842 60.1359L28.4482 61.0799V60.6079H26.3242L25.6162 60.8439V60.1359L27.5042 59.6639Z" fill="#68212A"/>
<path d="M10.0399 43.616H10.9839L11.2199 45.032L10.7479 44.56H8.85986L9.33186 43.852L10.0399 43.616Z" fill="#7F3137"/>
<path d="M66.916 25.444H67.624L67.86 28.04L67.388 28.276L66.916 26.388V25.444Z" fill="#7F884B"/>
<path d="M12.164 24.736L12.636 24.972V25.444H11.928L11.456 26.388L10.748 26.624V27.096L10.04 27.332L10.512 26.152L11.692 25.208H12.164V24.736Z" fill="#B7C768"/>
<path d="M38.5962 21.668H39.7762V22.376L39.3042 22.848V25.444H39.0682L38.5962 21.668Z" fill="#7A7D45"/>
<path d="M43.5519 58.012L44.7319 59.192L44.4959 60.372L44.0239 60.608L43.7879 59.664L43.3159 59.192H43.7879L43.5519 58.012Z" fill="#849A45"/>
<path d="M27.5039 57.304L28.6839 57.776L28.4479 58.484L27.0319 58.956L26.7959 57.776H27.5039V57.304Z" fill="#9D4542"/>
<path d="M7.44417 25.916H7.68017V27.332L7.44417 27.804H8.86017V28.04H7.68017L7.44417 28.748L6.97217 28.276V26.86L7.44417 25.916Z" fill="#A18D40"/>
<path d="M8.85986 44.5601H10.7479L10.2759 45.2681L8.62386 45.5041L8.38786 45.9761L8.15186 45.2681L8.85986 44.5601Z" fill="#6D242E"/>
<path d="M29.1558 29.692L30.3358 30.164L30.5718 31.108H30.0998L30.5718 32.052L29.6278 31.58L29.1558 30.872V29.692Z" fill="#9E424F"/>
<path d="M27.5039 25.6801L27.9759 25.9161L28.6839 28.2761H27.7399L27.5039 27.8041V25.6801Z" fill="#D97169"/>
<path d="M30.0999 20.252L30.8079 20.488L31.0439 21.668L29.6279 22.14L29.8639 20.96L30.0999 20.252Z" fill="#9E4B4A"/>
<path d="M16.4118 13.88H16.8838L16.4118 15.06L15.2318 15.768L14.7598 15.532L15.4678 14.352L16.4118 13.88Z" fill="#852A3D"/>
<path d="M8.62402 55.1801L9.56802 55.4161L10.276 56.8321L10.04 57.3041L8.62402 55.8881V55.1801Z" fill="#855B4B"/>
<path d="M14.0519 52.584H15.2319L14.5239 52.82V54L13.8159 54.708L13.1079 54.472L13.8159 53.528L14.0519 52.584Z" fill="#612230"/>
<path d="M6.26415 49.752L6.73615 50.224L6.97215 51.876L6.26415 51.64L5.55615 49.988L6.26415 49.752Z" fill="#AB7A63"/>
<path d="M52.284 47.392V48.1L51.34 49.28L50.632 49.044L50.396 48.336L52.284 47.392Z" fill="#809142"/>
<path d="M46.3839 44.5601V45.2681L44.7319 46.9201L44.0239 46.6841L45.9119 44.7961L46.3839 44.5601Z" fill="#FAFADF"/>
<path d="M57.9482 39.604L58.4202 39.84L57.9482 40.312L57.4762 41.492L56.5322 42.2V41.492L57.2402 40.312L57.9482 39.604Z" fill="#E5E2C1"/>
<path d="M53.7002 37.244H54.1722L53.7002 38.188L52.5202 39.132L52.2842 38.188L52.9922 37.48L53.7002 37.244Z" fill="#F1EFD7"/>
<path d="M16.6478 31.58H16.8838L16.6478 33.704L15.9398 34.412H15.4678L15.7038 33.232H16.1758L16.6478 31.58Z" fill="#933B4A"/>
<path d="M33.876 23.3199L34.112 24.2639H35.764L35.056 24.4999V24.9719L35.528 25.2079H34.112L33.876 24.9719V23.3199Z" fill="#CB7967"/>
<path d="M49.2161 20.016H49.4521L49.6881 22.612H49.2161L48.9801 23.556L48.7441 21.432H49.2161V20.016Z" fill="#746C3F"/>
<path d="M14.2882 17.656L15.7042 17.892L15.2322 18.128L14.9962 18.836L12.6362 18.6V18.364L14.2882 18.128V17.656Z" fill="#56342E"/>
<path d="M15.7038 17.184L17.5918 17.656L17.1198 18.128L14.9958 17.892L14.7598 17.42L15.7038 17.184Z" fill="#9A3F46"/>
<path d="M53.7002 7.50806L54.8802 7.98006L55.3522 8.92406L54.6442 9.16006L53.7002 8.21606V7.50806Z" fill="#878B50"/>
<path d="M53.7 55.652H54.408V57.068H53.228L53.464 55.888L53.7 55.652Z" fill="#FCFCEF"/>
<path d="M22.7838 53.528L23.0198 54L23.4918 54.236L22.3118 55.652L21.8398 54.944L22.3118 54L22.7838 53.528Z" fill="#AD7252"/>
<path d="M66.444 48.1L66.68 48.808L66.208 50.224H65.736L65.5 49.044L66.444 48.1Z" fill="#7A7C41"/>
<path d="M53.4642 35.12L54.1722 36.064L54.4082 37.008L55.3522 37.244L53.2282 37.48L53.4642 36.064V35.592L52.9922 35.356L53.4642 35.12Z" fill="#D3C090"/>
<path d="M33.1681 27.332L33.6401 27.568V28.276L34.1121 28.748H33.6401L34.3481 29.928L33.4041 29.456L32.9321 28.04L32.2241 27.804L33.1681 27.332Z" fill="#752C34"/>
<path d="M58.8922 22.376H60.0722L58.8922 23.32L58.4202 24.264L57.9482 24.028L58.1842 22.848L58.8922 22.376Z" fill="#DDE3A6"/>
<path d="M20.1878 22.6119H21.3678L21.1318 23.3199L20.4238 23.7919H19.0078L20.1878 22.6119Z" fill="#8B935A"/>
<path d="M22.7838 5.14795L23.2558 5.38395L22.7838 6.32795L21.6038 6.79995V6.09195L21.1318 5.85595L22.7838 5.14795Z" fill="#D6B48E"/>
<path d="M17.356 62.968L18.536 63.44L19.244 63.912V64.62L17.828 64.148L17.356 62.968Z" fill="#956C53"/>
<path d="M47.3278 58.484L47.7998 59.428L47.3278 61.08H47.0918L46.8558 59.192H46.3838V58.72L47.3278 58.484Z" fill="#371719"/>
<path d="M61.2519 56.5959H61.9599L61.7239 57.5399L61.0159 58.2479H60.5439L60.7799 57.0679L61.2519 56.5959Z" fill="#5E4A30"/>
<path d="M13.5799 51.64H15.7039V52.348L16.1759 52.584L13.1079 52.112L13.5799 51.64Z" fill="#C38262"/>
<path d="M43.7882 46.92L44.4962 47.156L43.0802 48.808H42.1362L42.3722 48.1L43.7882 46.92Z" fill="#F5F3D0"/>
<path d="M7.44417 42.672L7.91617 43.38V44.796L6.97217 45.032V43.38L7.44417 42.672Z" fill="#A44E47"/>
<path d="M10.9839 41.964L11.2199 42.908L10.9839 43.144H9.56786L8.85986 42.2L10.9839 42.436V41.964Z" fill="#A84D47"/>
<path d="M43.0801 38.424H43.7881V38.896L45.4401 39.368L45.2041 39.84L43.7881 39.604L43.0801 38.424Z" fill="#839A52"/>
<path d="M20.8962 29.692H21.3682V31.816H20.6602V29.928L20.8962 29.692Z" fill="#E2B889"/>
<path d="M16.1759 30.4L16.8839 31.108L16.4119 32.76H16.1759V31.344L15.2319 30.872L15.7039 30.636L16.1759 30.872V30.4Z" fill="#8A333F"/>
<path d="M34.1118 26.3881H35.2918L35.5278 27.0961L32.6958 27.3321L32.9318 26.8601H34.1118V26.3881Z" fill="#36141F"/>
<path d="M61.96 22.848L62.904 23.084L62.668 24.5L61.252 23.32L61.96 22.848Z" fill="#90A04C"/>
<path d="M12.1641 21.668L13.3441 22.848L13.8161 23.084V23.556L12.1641 23.084L11.4561 22.14H12.1641V21.668Z" fill="#8D9531"/>
<path d="M15.2321 18.1281H16.4121L16.6481 19.0721L16.4121 19.5441L15.2321 19.0721L14.9961 18.6001L15.2321 18.1281Z" fill="#401B1E"/>
<path d="M11.6919 12.464L12.6359 12.7L11.4559 14.116H10.9839L11.2199 12.936L11.6919 12.464Z" fill="#D9B587"/>
<path d="M48.0361 8.21594H49.4521L49.9241 8.68794V9.39594L48.7441 9.63194V8.45194L48.0361 8.21594Z" fill="#E0ECC4"/>
<path d="M22.0762 65.564L23.4922 65.8L24.2002 66.272L23.0202 66.744L22.0762 66.036V65.564Z" fill="#845545"/>
<path d="M39.3042 47.864L39.5402 48.336H40.2482L40.0122 49.752H39.3042V47.864Z" fill="#BE9C7B"/>
<path d="M52.9918 41.02L53.4638 41.256L52.2838 42.436L52.5198 42.908L51.8118 43.144L51.3398 42.436L52.9918 41.02Z" fill="#E2DFC9"/>
<path d="M10.984 30.636H11.22L11.692 32.524L10.984 33.468L10.748 33.232V31.108L10.984 30.636Z" fill="#964440"/>
<path d="M31.2798 23.556L32.2238 24.028L32.6958 24.5V25.208H31.5158L31.2798 24.972V23.556Z" fill="#B14649"/>
<path d="M32.9321 23.556L33.6401 23.792V25.68L32.9321 25.444V23.556Z" fill="#35191C"/>
<path d="M28.2119 20.016H30.8079L31.9879 20.96L31.0439 21.432L30.5719 20.488H28.2119V20.016Z" fill="#733736"/>
<path d="M20.424 18.1281L20.896 18.3641L20.424 19.3081V18.8361L19.48 19.3081L18.536 20.2521L18.064 20.0161L19.716 18.6001L20.424 18.1281Z" fill="#B2C071"/>
<path d="M20.66 10.104L21.132 10.34L20.896 11.52L21.604 11.992H20.66L20.424 12.7L20.188 12.464V10.812L20.66 10.104Z" fill="#AB4E44"/>
<path d="M47.3278 65.092H47.5638V67.452L46.3838 67.688V66.508L46.6198 67.216H47.0918L47.3278 65.092Z" fill="#817144"/>
<path d="M19.7158 62.968L20.4238 63.912V64.62L21.8398 64.856V65.092H20.1878L19.7158 64.856V62.968Z" fill="#99624A"/>
<path d="M49.4521 55.652L49.6881 56.36H50.1601V58.012H49.4521V55.652Z" fill="#C19E7C"/>
<path d="M53.9362 54.708H54.6442V55.18L55.5882 54.944L55.8242 55.652L55.3522 55.888L54.8802 56.596L54.4082 55.416L53.7002 54.944L53.9362 54.708Z" fill="#C6CB95"/>
<path d="M62.904 52.8199H63.376L62.904 53.7639L62.432 54.2359H61.252L61.724 53.2919V53.7639L62.904 52.8199Z" fill="#93AF5B"/>
<path d="M59.8359 49.0439L62.1959 49.2799V49.7519H61.0159L60.7799 50.9319H60.5439L60.3079 49.5159L59.8359 49.0439Z" fill="#D5D8A0"/>
<path d="M13.5799 46.92L13.8159 47.628L12.8719 48.572L11.6919 49.044L13.1079 47.392L13.5799 46.92Z" fill="#E0BA87"/>
<path d="M44.7321 42.2V42.908L44.2601 43.38L43.7881 44.56L43.0801 45.032V44.324L44.0241 42.908L44.7321 42.2Z" fill="#ECE9CB"/>
<path d="M67.6242 25.6801L68.0962 26.3881L68.3322 27.8041L67.8602 29.4561L67.3882 28.5121L67.6242 28.0401V25.6801Z" fill="#757244"/>
<path d="M20.424 26.624H20.66V28.04L19.716 28.984L19.48 28.04L20.424 26.624Z" fill="#798646"/>
<path d="M6.73583 19.308H6.97183V20.96L6.26383 21.432L6.02783 20.252L6.73583 19.308Z" fill="#D0AB8E"/>
<path d="M9.56786 15.296H10.0399L9.56786 16.476L8.15186 17.184L8.62386 16.004L9.56786 15.296Z" fill="#CEA684"/>
<path d="M21.3682 53.528H21.6042V54.944H22.0762L21.8402 56.36L21.3682 56.596V53.528Z" fill="#BF8B64"/>
<path d="M62.432 49.988L63.376 50.224L62.904 51.876L62.432 51.168L61.96 50.224L62.432 49.988Z" fill="#92A34A"/>
<path d="M12.6361 28.276L13.1081 28.512L12.6361 28.984L13.1081 29.456L11.4561 29.692V28.984L12.6361 28.276Z" fill="#361D1E"/>
<path d="M60.5441 22.848L61.0161 23.792L60.7801 24.264H60.0721L59.8361 24.972L58.8921 24.736L60.3081 23.556L60.5441 22.848Z" fill="#B0C985"/>
<path d="M13.8159 23.556H14.9959L14.5239 23.792V25.444L13.8159 24.972V23.556Z" fill="#7F5E44"/>
<path d="M41.6641 23.556L42.8441 23.792L42.6081 24.736H41.6641V23.556Z" fill="#A2BE69"/>
<path d="M59.6001 16.948H60.3081L60.0721 18.128H58.8921L59.3641 17.184L59.6001 16.948Z" fill="#FAFBF1"/>
<path d="M12.1641 59.428L13.3441 59.664L14.0521 60.372L13.3441 60.844L12.1641 59.428Z" fill="#9C6D56"/>
<path d="M16.4118 45.504L17.3558 45.976L16.4118 46.684L15.4678 46.448L16.1758 46.212L14.7598 45.976V45.74L16.4118 45.504Z" fill="#CBA873"/>
<path d="M62.4321 38.424H63.1401V40.784L62.9041 39.84H62.4321V38.424Z" fill="#89684A"/>
<path d="M56.06 38.424L56.296 39.132L54.644 40.548V39.604L56.06 38.424Z" fill="#F7F6E8"/>
<path d="M59.1281 35.356L59.3641 36.064L57.7121 36.772L56.7681 37.244L57.9481 36.064L59.1281 35.356Z" fill="#E3DFC9"/>
<path d="M28.2121 24.972H28.6841V27.096H28.2121L27.9761 25.68L28.2121 24.972Z" fill="#EB9B87"/>
<path d="M27.5039 23.084H27.7399V24.5H28.2119V25.68H27.5039V23.084Z" fill="#E18978"/>
<path d="M34.3478 20.016H35.5278V20.724H33.4038L33.6398 20.252L34.3478 20.016Z" fill="#D89987"/>
<path d="M51.5762 19.072H51.8122L52.0482 21.432L51.5762 20.96L51.1042 21.432L50.8682 20.016H51.5762V19.072Z" fill="#786F35"/>
<path d="M33.8761 19.072H34.3481V20.252L32.9321 20.724L33.4041 19.544L33.8761 19.072Z" fill="#EBD3B3"/>
<path d="M48.5078 13.88H48.7438V16.712H49.2158L48.9798 17.656L48.5078 17.42V13.88Z" fill="#878245"/>
<path d="M38.3602 68.16H40.2482V68.396L38.3602 68.632V69.104H37.1802L37.8882 68.396L38.3602 68.16Z" fill="#63682F"/>
<path d="M47.0918 65.328H47.3278L47.0918 67.216H46.6198L46.3838 65.564L47.0918 65.8V65.328Z" fill="#A59F56"/>
<path d="M40.0119 59.192L40.4839 60.136L41.1919 60.608L40.4839 60.844L40.0119 61.316L39.7759 61.08V59.664L40.0119 59.192Z" fill="#939F60"/>
<path d="M23.7282 53.528L23.9642 54.236L22.5482 55.888L22.0762 55.652L23.7282 53.528Z" fill="#4E211D"/>
<path d="M19.48 47.156H20.188L19.952 48.1L19.244 48.572L18.772 48.1L19.48 47.156Z" fill="#E4D59F"/>
<path d="M4.37581 44.796L4.84781 45.504L5.08381 46.684H4.13981L3.90381 45.504H4.37581V44.796Z" fill="#AE876F"/>
<path d="M63.376 42.436H65.028L65.264 43.144L65.736 43.38L64.792 43.852L64.556 42.672H63.376V42.436Z" fill="#9E7F47"/>
<path d="M41.6641 39.84L42.6081 40.784V41.964L42.1361 42.2L41.6641 40.784V39.84Z" fill="#919B5E"/>
<path d="M27.5039 39.604H27.9759L27.5039 40.548L26.3239 41.492L26.0879 40.784L27.5039 39.604Z" fill="#F1E7BE"/>
<path d="M59.8361 26.3881H61.0161L60.5441 27.3321L61.2521 27.5681H59.6001L59.8361 26.3881Z" fill="#778A44"/>
<path d="M15.4679 22.14H15.9399L15.7039 23.32L15.4679 23.556H13.8159L14.7599 23.084H15.2319L15.4679 22.14Z" fill="#849F3F"/>
<path d="M17.1199 12.7L18.2999 13.644L18.0639 14.352L16.6479 13.644L17.1199 12.7Z" fill="#9D3D4C"/>
<path d="M20.6598 6.09204H21.6038V6.80004L20.4238 7.03604L19.7158 6.56404L20.6598 6.09204Z" fill="#E2C399"/>
<path d="M27.7402 67.452L29.1562 67.688L29.6282 67.924V68.396L27.9762 68.16L27.7402 67.452Z" fill="#A37459"/>
<path d="M54.644 62.7319H55.588L55.116 63.6759L53.936 64.1479V63.6759H54.408L54.644 62.7319Z" fill="#757C3D"/>
<path d="M29.3922 60.608L29.6282 61.552L29.1562 62.26H28.4482L28.9202 61.08L29.3922 60.608Z" fill="#91353E"/>
<path d="M26.3239 50.46V51.168L25.1439 52.112L24.6719 51.64L26.3239 50.46Z" fill="#835543"/>
<path d="M49.4521 49.752H50.1601V51.404L49.4521 51.168V49.752Z" fill="#A57A5E"/>
<path d="M18.5358 48.3361H19.2438L18.7718 49.2801L18.0638 49.7521L17.5918 49.2801L18.5358 48.3361Z" fill="#F2E7B2"/>
<path d="M44.4961 37.952H45.2041V38.896H43.7881L44.0241 38.188L44.4961 37.952Z" fill="#555425"/>
<path d="M21.368 30.636H21.604L21.84 32.996H21.368L20.896 31.816H21.368V30.636Z" fill="#D19D74"/>
<path d="M51.1038 29.692L51.5758 29.928V31.108H50.6318L50.8678 29.928L51.1038 29.692Z" fill="#859537"/>
<path d="M55.3519 15.532L55.8239 15.768V16.24L54.1719 16.476V15.768L55.3519 15.532Z" fill="#91B64D"/>
<path d="M52.5202 12.464H52.7562L53.2282 14.116L52.2842 14.588V12.936L52.5202 12.464Z" fill="#B4CC6D"/>
<path d="M13.3442 10.812L13.5802 11.284L12.8722 12.464L11.9282 12.228L13.3442 10.812Z" fill="#E7C895"/>
<path d="M49.688 5.62L50.868 5.856L51.812 6.328V6.8L50.632 6.564L49.688 5.62Z" fill="#7F8D4D"/>
<path d="M44.4962 60.136L44.7322 60.844L43.3162 62.024H42.8442V61.552L44.4962 60.136Z" fill="#739034"/>
<path d="M41.6641 57.776H42.8441L42.6081 58.72L42.3721 59.664L41.9001 59.428V58.248L41.6641 57.776Z" fill="#BFCC81"/>
<path d="M42.6082 55.416H42.8442V57.068H42.1362V55.652L42.6082 55.416Z" fill="#F9F5CA"/>
<path d="M49.4521 51.168L50.1601 51.404V54.236H49.9241V52.112H49.4521V51.168Z" fill="#C39A7B"/>
<path d="M10.9839 50.696H11.4559L10.9839 51.64L10.0399 52.584L9.56787 52.348L10.9839 50.696Z" fill="#4B2D29"/>
<path d="M59.3639 49.28L60.5439 49.516V51.168L60.0719 50.224L59.1279 49.516L59.3639 49.28Z" fill="#EFEFCA"/>
<path d="M19.7158 42.2H20.6598L20.1878 43.144L19.0078 43.38L19.7158 42.2Z" fill="#DEB37C"/>
<path d="M20.896 41.02L21.84 41.256L20.896 42.2H20.188L20.66 41.256L20.896 41.02Z" fill="#EDC68A"/>
<path d="M60.0718 34.176L60.3078 34.884L59.3638 35.592L58.6558 35.356L59.3638 34.648L60.0718 34.176Z" fill="#F4F2D9"/>
<path d="M48.5081 32.996L49.2161 33.232V33.94L48.0361 34.176L48.2721 33.232L48.5081 32.996Z" fill="#544E28"/>
<path d="M47.564 32.524H49.216L48.272 33.468H47.564V32.524Z" fill="#E7EFBB"/>
<path d="M8.15185 25.208L8.38785 26.152H7.91585L8.15185 27.804H7.44385L7.67985 25.68L8.15185 25.208Z" fill="#DDCD7D"/>
<path d="M10.9839 20.252L11.9279 21.432L12.1639 22.14L11.2199 21.904L10.9839 20.252Z" fill="#D4CE5B"/>
<path d="M20.8961 19.308L21.3681 19.544L19.9521 21.432L19.2441 21.196L20.8961 19.308Z" fill="#4B5228"/>
<path d="M60.0718 17.892H60.7798L60.5438 18.836L59.3638 18.6V18.128L60.0718 17.892Z" fill="#918E61"/>
<path d="M59.8361 12.464L60.7801 12.936L61.0161 13.408L59.8361 13.644L59.6001 12.936L59.8361 12.464Z" fill="#66593C"/>
<path d="M40.248 68.16H42.608L42.372 68.868H41.192L40.248 68.16Z" fill="#6A7033"/>
<path d="M20.6598 62.024H21.8398V62.732L20.4238 62.968L20.6598 62.024Z" fill="#BD7F55"/>
<path d="M54.8802 59.192L55.1162 60.136L55.8242 60.372H53.9362L53.7002 59.9L54.6442 59.664L54.8802 59.192Z" fill="#829848"/>
<path d="M26.0881 57.304H26.7961L27.0321 59.192L26.5601 58.956V58.248L25.8521 58.012L26.0881 57.304Z" fill="#8E5455"/>
<path d="M55.3522 56.124L55.8242 56.36V57.54L55.1162 58.012L54.4082 57.54L55.3522 57.304V56.124Z" fill="#5B4527"/>
<path d="M40.012 49.28H40.248V50.932L39.54 51.168V49.988L40.012 49.28Z" fill="#A17B61"/>
<path d="M62.1958 49.28L62.9038 49.988L61.7238 50.224L61.2518 49.988V50.696L60.7798 50.46L61.0158 49.752H62.1958V49.28Z" fill="#A7AD5E"/>
<path d="M14.5241 46.684L15.4681 46.92L14.0521 48.1H13.5801L14.0521 47.156L14.5241 46.684Z" fill="#664137"/>
<path d="M8.38818 41.728L8.86018 41.964L9.33218 42.672L7.68018 43.144L7.91618 42.2L8.38818 41.728Z" fill="#C58874"/>
<path d="M9.56803 41.728H10.748L10.984 42.436L10.276 42.672L9.33203 41.964L9.56803 41.728Z" fill="#B66654"/>
<path d="M62.1958 37.244H62.6678L62.9038 38.424H62.4318V39.84H62.1958V37.244Z" fill="#5A3A32"/>
<path d="M64.5562 28.04L65.7362 28.276V28.984L64.5562 28.748V28.04Z" fill="#B8AE69"/>
<path d="M37.1802 27.568L38.1242 27.804L38.3602 28.748L37.6522 28.984L37.1802 27.568Z" fill="#73A330"/>
<path d="M10.7479 25.444L11.4559 25.68L10.2759 26.86L10.0399 27.568L9.56787 27.332L10.2759 25.68L10.7479 25.444Z" fill="#C3D57A"/>
<path d="M17.8281 24.264L19.0081 24.736V25.208L18.5361 25.444L18.0641 26.152L17.8281 24.264Z" fill="#959E4A"/>
<path d="M57.2402 13.172H57.4762V14.824L57.0042 15.296L56.5322 14.824V14.116L57.0042 13.88L57.2402 13.172Z" fill="#9AAB61"/>
<path d="M42.6082 58.9561L42.8442 59.9001L42.3722 60.3721L41.4282 60.1361L42.3722 59.6641L42.6082 58.9561Z" fill="#969845"/>
<path d="M55.5879 56.36L56.2959 56.596L56.5319 58.248L55.8239 57.54L55.5879 56.36Z" fill="#3E2717"/>
<path d="M14.0518 52.348H16.4118L16.6478 53.056L15.2318 52.82L14.0518 52.584V52.348Z" fill="#B6634F"/>
<path d="M49.6878 45.2679L50.3958 45.5039L48.9798 46.6839L48.5078 46.4479L49.6878 45.2679Z" fill="#422E29"/>
<path d="M29.3918 37.48L30.0998 37.952V39.132H29.6278V38.66L29.1558 38.424L29.3918 37.48Z" fill="#DFB78A"/>
<path d="M58.4202 36.064L58.8922 36.3L57.2402 37.716V37.008L58.4202 36.064Z" fill="#F7F7E2"/>
<path d="M49.2161 33.468H49.4521V34.648H48.0361V34.176L49.2161 33.94V33.468Z" fill="#6E8234"/>
<path d="M48.7438 28.04H48.9798L49.2158 30.164L48.5078 30.4L48.7438 28.04Z" fill="#6E5D36"/>
<path d="M51.3398 28.512L51.8118 28.748L51.5758 29.928L50.6318 30.164L51.1038 28.748L51.3398 28.512Z" fill="#797C37"/>
<path d="M48.744 9.63196H49.452V10.576L48.272 10.34V9.86796L48.744 9.63196Z" fill="#4E4129"/>
</g>
<defs>
<filter id="filter0_d_2037_450" x="0.524902" y="0.53186" width="74.9502" height="74.9503" filterUnits="userSpaceOnUse" color-interpolation-filters="sRGB">
<feFlood flood-opacity="0" result="BackgroundImageFix"/>
<feColorMatrix in="SourceAlpha" type="matrix" values="0 0 0 0 0 0 0 0 0 0 0 0 0 0 0 0 0 0 127 0" result="hardAlpha"/>
<feOffset dx="2" dy="2"/>
<feGaussianBlur stdDeviation="2"/>
<feComposite in2="hardAlpha" operator="out"/>
<feColorMatrix type="matrix" values="0 0 0 0 0 0 0 0 0 0 0 0 0 0 0 0 0 0 0.25 0"/>
<feBlend mode="normal" in2="BackgroundImageFix" result="effect1_dropShadow_2037_450"/>
<feBlend mode="normal" in="SourceGraphic" in2="effect1_dropShadow_2037_450" result="shape"/>
</filter>
<clipPath id="clip0_2037_450">
<rect width="76" height="76" fill="white"/>
</clipPath>
</defs>
</svg>
